<?xml version="1.0" standalone="no"?>
<!DOCTYPE svg PUBLIC "-//W3C//DTD SVG 20010904//EN"
 "http://www.w3.org/TR/2001/REC-SVG-20010904/DTD/svg10.dtd">
<svg version="1.0" xmlns="http://www.w3.org/2000/svg"
 width="1024.000000pt" height="683.000000pt" viewBox="0 0 1024.000000 683.000000"
 preserveAspectRatio="xMidYMid meet">

<g transform="translate(0.000000,683.000000) scale(0.100000,-0.100000)"
fill="#000000" stroke="none">
<path d="M852 6810 c0 -14 2 -19 5 -12 2 6 2 18 0 25 -3 6 -5 1 -5 -13z"/>
<path d="M4474 6818 c24 -13 145 -23 180 -14 59 15 21 26 -86 26 -88 -1 -109
-3 -94 -12z"/>
<path d="M5900 6810 c80 -9 167 -21 194 -25 l50 -8 -27 27 -26 26 -168 -1
-168 -1 145 -18z"/>
<path d="M6147 6800 c12 -22 25 -30 45 -30 30 0 172 -18 630 -80 182 -25 192
-25 184 -4 -4 12 -2 15 9 10 11 -4 15 1 15 16 0 17 -3 19 -12 10 -7 -7 -16
-12 -22 -12 -5 0 6 16 25 37 20 21 27 33 17 30 -12 -4 -21 1 -28 13 -6 11 -7
20 -3 20 4 0 0 5 -10 11 -9 5 -22 7 -27 4 -13 -8 -13 -51 0 -76 8 -15 7 -19
-4 -19 -8 0 -17 -6 -19 -12 -3 -8 -6 -8 -6 -2 -1 7 -28 9 -81 6 -79 -5 -80 -4
-80 19 1 13 7 35 15 49 21 37 19 40 -25 40 -35 0 -40 -3 -46 -27 -10 -46 -14
-50 -11 -10 l3 37 -48 0 c-45 0 -48 -2 -58 -32 l-10 -33 3 33 4 32 -53 0 c-47
0 -53 -3 -57 -22 l-4 -23 -2 23 c-1 19 -6 22 -47 22 -32 0 -51 -5 -61 -17 -13
-17 -14 -17 -9 -1 5 16 -7 17 -120 17 l-125 0 18 -29z"/>
<path d="M7290 6748 c1 -46 5 -144 10 -218 34 -502 34 -530 15 -544 -15 -11
-17 -22 -11 -79 l7 -66 37 6 c20 3 38 7 39 8 2 0 0 31 -4 68 -5 53 -10 68 -24
72 -17 6 -19 18 -19 103 0 53 -7 194 -15 312 -8 118 -15 261 -15 318 0 61 -4
102 -10 102 -6 0 -10 -34 -10 -82z"/>
<path d="M8397 6807 c4 -19 9 -22 47 -19 37 3 45 0 60 -22 9 -14 23 -26 31
-26 13 0 19 -24 28 -120 2 -19 5 1 5 45 2 92 0 90 117 137 l70 27 -181 1 -181
0 4 -23z"/>
<path d="M8850 6792 c0 -77 13 -191 21 -186 5 3 7 -66 5 -153 -3 -88 -2 -164
2 -170 4 -6 5 -39 2 -73 l-5 -62 -75 -24 c-41 -14 -82 -27 -91 -29 -9 -2 -34
-8 -55 -14 -22 -6 -44 -11 -50 -11 -7 0 -13 71 -18 217 -4 141 -10 221 -18
228 -8 7 -9 6 -4 -2 4 -7 2 -21 -3 -30 -10 -17 -10 -16 -11 2 0 16 -3 14 -16
-10 -9 -16 -17 -36 -18 -43 -1 -7 -12 -20 -25 -28 -20 -15 -45 -15 -91 -3 -12
3 -15 -9 -14 -71 2 -199 16 -780 21 -900 2 -74 5 -146 6 -160 0 -14 4 -119 9
-235 5 -115 13 -304 18 -420 4 -115 15 -388 23 -605 31 -776 39 -1029 39
-1325 0 -165 3 -304 7 -310 3 -5 6 -64 6 -130 1 -219 6 -265 26 -265 9 0 19 4
21 8 2 5 22 6 45 4 24 -2 41 -8 38 -13 -3 -4 -13 -5 -23 -2 -13 5 -14 3 -6 -6
6 -7 31 -14 55 -16 39 -4 41 -3 14 5 -29 9 -29 9 5 4 19 -3 49 -6 65 -6 17 -1
23 -3 15 -7 -23 -8 207 -28 455 -40 338 -16 456 -19 400 -11 l-50 7 48 1 47 2
0 61 c0 278 -53 1756 -80 2229 -13 231 -19 379 -20 469 0 61 -3 72 -15 67 -20
-7 -20 18 0 34 9 7 13 20 11 29 -3 9 -7 117 -11 241 -3 124 -8 245 -10 270 -3
25 -10 187 -15 360 -14 434 -22 664 -25 668 -1 1 -15 -3 -31 -9 -16 -6 -84
-26 -151 -44 l-123 -33 0 70 c0 43 4 67 10 63 6 -4 10 6 10 23 0 17 -6 32 -15
36 -12 4 -15 25 -15 98 0 51 -3 137 -7 191 l-6 97 -30 0 c-29 0 -29 -1 -23
-37 3 -21 11 -152 17 -292 11 -244 10 -255 -7 -268 -23 -17 -107 -42 -154 -45
l-35 -3 -6 110 -5 110 -3 -105 -4 -105 -8 90 c-10 120 -18 305 -18 438 l-1
107 -25 0 c-22 0 -25 -4 -25 -38z m67 -1169 c-3 -10 -5 -4 -5 12 0 17 2 24 5
18 2 -7 2 -21 0 -30z m318 -32 c5 -17 4 -21 -5 -16 -9 5 -10 1 -5 -15 4 -12 9
-30 10 -39 2 -9 4 -16 5 -16 2 0 4 -11 15 -122 4 -35 7 -66 8 -70 0 -5 7 -14
14 -21 7 -7 13 -21 12 -30 0 -14 -2 -13 -10 3 -7 15 -8 13 -3 -10 11 -48 20
-317 12 -355 -4 -20 -2 -40 4 -47 7 -9 7 -13 -1 -13 -7 0 -11 -21 -11 -55 0
-34 4 -55 11 -55 11 0 9 -25 -6 -65 -5 -14 -4 -16 3 -7 13 19 22 -42 21 -148
-1 -80 -1 -83 -14 -55 -13 29 -14 28 -10 -28 1 -32 6 -61 9 -64 3 -4 6 -17 6
-30 0 -13 6 -32 12 -43 10 -15 10 -22 0 -32 -9 -9 -12 -7 -12 12 0 13 -3 21
-6 18 -9 -10 7 -98 17 -92 6 3 9 -27 8 -70 -1 -76 -12 -100 -22 -48 -3 15 -10
43 -15 62 l-10 35 -1 -44 c-1 -63 -7 -48 -15 39 -4 51 -3 70 4 60 8 -12 10 -9
10 13 0 17 -4 26 -10 22 -6 -4 -10 -3 -8 2 2 11 -10 300 -24 528 -5 99 -10
188 -10 198 1 9 -3 17 -9 17 -5 0 -9 12 -9 26 0 14 4 23 8 20 4 -2 7 126 5
286 -2 268 2 315 22 249z m-300 -306 c4 -137 9 -253 11 -256 2 -3 6 -124 9
-268 3 -145 7 -266 10 -271 7 -12 9 -359 1 -367 -3 -3 -6 2 -6 13 0 10 -4 107
-10 214 -5 107 -12 314 -16 460 -3 146 -8 268 -10 271 -9 16 -15 473 -5 464 5
-6 12 -118 16 -260z m192 243 c-3 -8 -6 -5 -6 6 -1 11 2 17 5 13 3 -3 4 -12 1
-19z m140 -95 c-3 -10 -5 -4 -5 12 0 17 2 24 5 18 2 -7 2 -21 0 -30z m127 -23
c-4 -26 -10 -37 -14 -29 -10 20 0 93 12 81 5 -5 6 -28 2 -52z m136 -167 c0
-32 2 -77 6 -99 4 -26 2 -44 -5 -48 -7 -5 -12 7 -13 33 -1 23 -2 56 -3 74 -3
35 5 97 12 97 2 0 4 -26 3 -57z m-133 -65 c-3 -7 -5 -2 -5 12 0 14 2 19 5 13
2 -7 2 -19 0 -25z m-777 12 c0 -5 -4 -10 -10 -10 -5 0 -10 5 -10 10 0 6 5 10
10 10 6 0 10 -4 10 -10z m787 -62 c-3 -8 -6 -5 -6 6 -1 11 2 17 5 13 3 -3 4
-12 1 -19z m-10 -60 c-2 -24 -2 -34 0 -23 6 24 20 41 20 23 0 -7 3 -56 7 -108
6 -79 5 -93 -6 -82 -8 8 -12 34 -11 72 1 45 -2 58 -12 54 -19 -8 -28 44 -14
78 16 39 21 35 16 -14z m128 -100 c8 -24 8 -39 0 -75 -6 -26 -25 -31 -25 -7 0
8 5 12 10 9 6 -3 10 1 10 9 0 9 -4 16 -10 16 -5 0 -10 16 -10 35 0 39 14 46
25 13z m-508 -90 c-2 -18 -4 -6 -4 27 0 33 2 48 4 33 2 -15 2 -42 0 -60z m190
40 c-3 -7 -5 -2 -5 12 0 14 2 19 5 13 2 -7 2 -19 0 -25z m313 -98 c0 -5 -5
-10 -11 -10 -5 0 -7 5 -4 10 3 6 8 10 11 10 2 0 4 -4 4 -10z m-93 -42 c-3 -7
-5 -2 -5 12 0 14 2 19 5 13 2 -7 2 -19 0 -25z m-130 -20 c-3 -7 -5 -2 -5 12 0
14 2 19 5 13 2 -7 2 -19 0 -25z m80 -15 c-3 -10 -5 -2 -5 17 0 19 2 27 5 18 2
-10 2 -26 0 -35z m170 -90 c-3 -10 -5 -2 -5 17 0 19 2 27 5 18 2 -10 2 -26 0
-35z m-161 15 c4 -7 3 -8 -4 -4 -7 4 -12 2 -12 -5 0 -7 -3 -10 -6 -6 -6 5 3
27 11 27 2 0 7 -5 11 -12z m106 -143 c3 -14 1 -25 -3 -25 -5 0 -9 11 -9 25 0
14 2 25 4 25 2 0 6 -11 8 -25z m-102 0 c0 -8 -4 -15 -10 -15 -5 0 -10 7 -10
15 0 8 5 15 10 15 6 0 10 -7 10 -15z m-3 -62 c-3 -10 -5 -4 -5 12 0 17 2 24 5
18 2 -7 2 -21 0 -30z m-81 -661 c-3 -18 -1 -30 4 -27 11 7 17 -31 25 -140 5
-78 5 -79 -11 -51 -12 22 -18 26 -25 15 -7 -11 -9 -9 -9 8 0 12 -5 23 -11 25
-17 6 -18 224 -1 221 6 -2 12 7 13 20 1 18 2 17 10 -8 5 -16 8 -45 5 -63z
m-509 -439 c-3 -10 -5 -4 -5 12 0 17 2 24 5 18 2 -7 2 -21 0 -30z m0 -100 c-3
-10 -5 -2 -5 17 0 19 2 27 5 18 2 -10 2 -26 0 -35z m0 -90 c-3 -10 -5 -2 -5
17 0 19 2 27 5 18 2 -10 2 -26 0 -35z m-4 -265 c12 2 17 -4 17 -19 0 -15 -5
-19 -15 -15 -11 4 -15 -2 -15 -20 0 -14 3 -23 8 -21 4 3 5 -23 3 -56 l-5 -62
-7 60 c-11 96 -18 203 -11 165 5 -26 12 -34 25 -32z m17 17 c0 -5 -5 -3 -10 5
-5 8 -10 20 -10 25 0 6 5 3 10 -5 5 -8 10 -19 10 -25z m830 -320 c0 -8 -2 -15
-4 -15 -2 0 -6 7 -10 15 -3 8 -1 15 4 15 6 0 10 -7 10 -15z m-520 -650 c0 -8
-2 -15 -4 -15 -2 0 -6 7 -10 15 -3 8 -1 15 4 15 6 0 10 -7 10 -15z"/>
<path d="M9282 4510 c0 -14 2 -19 5 -12 2 6 2 18 0 25 -3 6 -5 1 -5 -13z"/>
<path d="M9260 4392 c0 -22 5 -44 10 -47 7 -4 8 8 4 37 -9 57 -14 61 -14 10z"/>
<path d="M824 6765 c-4 -9 -3 -40 1 -70 l6 -55 42 1 42 2 -35 7 c-31 7 -32 7
-7 9 25 1 27 4 27 42 0 22 -5 49 -10 60 -13 23 -58 26 -66 4z"/>
<path d="M5680 6700 c-8 -5 -11 -12 -7 -16 4 -4 13 -2 19 4 15 15 7 24 -12 12z"/>
<path d="M4573 6463 c9 -2 23 -2 30 0 6 3 -1 5 -18 5 -16 0 -22 -2 -12 -5z"/>
<path d="M4653 6453 c9 -2 25 -2 35 0 9 3 1 5 -18 5 -19 0 -27 -2 -17 -5z"/>
<path d="M4753 6443 c9 -2 23 -2 30 0 6 3 -1 5 -18 5 -16 0 -22 -2 -12 -5z"/>
<path d="M4458 6433 c7 -3 16 -2 19 1 4 3 -2 6 -13 5 -11 0 -14 -3 -6 -6z"/>
<path d="M4823 6433 c9 -2 25 -2 35 0 9 3 1 5 -18 5 -19 0 -27 -2 -17 -5z"/>
<path d="M4913 6423 c15 -2 37 -2 50 0 12 2 0 4 -28 4 -27 0 -38 -2 -22 -4z"/>
<path d="M4638 6413 c12 -2 30 -2 40 0 9 3 -1 5 -23 4 -22 0 -30 -2 -17 -4z"/>
<path d="M5035 6410 c28 -5 68 -8 90 -8 35 1 33 2 -15 8 -30 5 -71 8 -90 8
-28 -1 -25 -2 15 -8z"/>
<path d="M5198 6393 c12 -2 32 -2 45 0 12 2 2 4 -23 4 -25 0 -35 -2 -22 -4z"/>
<path d="M5283 6383 c9 -2 25 -2 35 0 9 3 1 5 -18 5 -19 0 -27 -2 -17 -5z"/>
<path d="M5348 6373 c7 -3 16 -2 19 1 4 3 -2 6 -13 5 -11 0 -14 -3 -6 -6z"/>
<path d="M3088 5393 c7 -3 16 -2 19 1 4 3 -2 6 -13 5 -11 0 -14 -3 -6 -6z"/>
<path d="M3796 4695 c4 -8 7 -15 9 -15 2 0 5 7 9 15 3 9 0 15 -9 15 -9 0 -12
-6 -9 -15z"/>
<path d="M5950 4600 c0 -5 5 -10 10 -10 6 0 10 5 10 10 0 6 -4 10 -10 10 -5 0
-10 -4 -10 -10z"/>
<path d="M837 4273 c-9 -18 -7 -83 3 -83 5 0 10 20 10 45 0 43 -4 54 -13 38z"/>
<path d="M1910 4229 c-66 -18 -67 -19 -47 -33 9 -8 26 -38 36 -67 l18 -53 7
44 c5 33 9 41 16 30 7 -10 10 1 10 38 0 28 -1 52 -2 51 -2 0 -19 -5 -38 -10z"/>
<path d="M786 4205 c6 -26 -10 -36 -20 -12 -10 21 0 -85 14 -145 15 -67 6
-163 -16 -172 -10 -4 -14 3 -14 27 0 24 3 28 10 17 15 -24 12 68 -4 120 l-15
45 0 -67 c-1 -44 3 -68 12 -71 10 -4 10 -6 0 -6 -7 -1 -13 -10 -13 -22 0 -11
-4 -29 -10 -39 -12 -22 11 -35 38 -21 9 5 25 12 35 15 14 4 17 18 17 78 0 39
-6 99 -12 132 -10 47 -10 60 0 64 7 2 12 21 12 43 0 32 -3 39 -20 39 -17 0
-19 -5 -14 -25z"/>
<path d="M730 4190 c0 -11 -4 -20 -9 -20 -5 0 -12 -10 -14 -22 -4 -20 -4 -19
-6 5 0 16 -7 27 -16 27 -11 0 -13 -8 -8 -32 3 -18 10 -40 15 -48 8 -12 8 -12
4 3 -3 9 -1 17 4 17 6 0 10 -46 10 -111 0 -71 4 -108 10 -104 6 4 10 59 10
131 0 81 4 123 10 119 6 -4 10 7 10 24 0 17 -4 31 -10 31 -5 0 -10 -9 -10 -20z"/>
<path d="M624 4058 c3 -50 6 -116 6 -147 0 -30 4 -51 8 -46 12 15 2 285 -10
285 -8 0 -9 -30 -4 -92z"/>
<path d="M657 4008 c3 -73 7 -135 9 -137 2 -2 4 57 4 132 0 78 -4 137 -9 137
-6 0 -7 -54 -4 -132z"/>
<path d="M589 4088 c-1 -38 -2 -40 -10 -18 -5 15 -6 -34 -4 -124 3 -82 7 -152
10 -154 7 -8 117 32 121 43 2 6 0 33 -4 60 l-8 50 -8 -47 c-5 -32 -14 -53 -29
-63 -32 -23 -37 -19 -37 30 0 25 -4 45 -10 45 -5 0 -10 7 -10 15 0 8 5 15 11
15 7 0 9 11 4 33 -3 17 -7 60 -8 95 -2 69 -16 86 -18 20z m21 -278 c0 -5 -4
-10 -10 -10 -5 0 -10 5 -10 10 0 6 5 10 10 10 6 0 10 -4 10 -10z"/>
<path d="M535 3929 c0 -116 3 -160 12 -163 7 -3 14 -2 15 2 2 4 2 75 0 159 -2
106 -7 153 -15 156 -9 3 -12 -35 -12 -154z"/>
<path d="M3162 4045 c0 -16 2 -22 5 -12 2 9 2 23 0 30 -3 6 -5 -1 -5 -18z"/>
<path d="M487 4013 c7 -71 11 -75 12 -10 1 31 -3 57 -8 57 -5 0 -6 -21 -4 -47z"/>
<path d="M510 3938 c0 -74 4 -129 10 -133 13 -8 13 225 0 245 -7 10 -10 -26
-10 -112z"/>
<path d="M442 3970 c0 -41 4 -86 8 -100 7 -20 8 -17 8 20 0 25 -3 70 -8 100
l-7 55 -1 -75z"/>
<path d="M3805 4031 c-3 -5 -1 -12 5 -16 5 -3 10 1 10 9 0 18 -6 21 -15 7z"/>
<path d="M468 4023 c-2 -5 -1 -62 2 -128 l6 -120 2 128 c2 116 0 140 -10 120z"/>
<path d="M5990 3966 c0 -9 5 -16 10 -16 6 0 10 4 10 9 0 6 -4 13 -10 16 -5 3
-10 -1 -10 -9z"/>
<path d="M491 3797 c-1 -43 2 -57 12 -54 12 4 12 15 -2 77 -8 32 -9 30 -10
-23z"/>
<path d="M452 3815 c0 -16 2 -22 5 -12 2 9 2 23 0 30 -3 6 -5 -1 -5 -18z"/>
<path d="M420 3786 c0 -20 4 -36 8 -36 12 0 14 58 2 65 -6 4 -10 -8 -10 -29z"/>
<path d="M1240 3791 c0 -16 19 -23 40 -16 30 10 24 25 -10 25 -16 0 -30 -4
-30 -9z"/>
<path d="M1520 3780 c0 -5 9 -10 20 -10 11 0 20 5 20 10 0 6 -9 10 -20 10 -11
0 -20 -4 -20 -10z"/>
<path d="M1690 3250 c0 -5 5 -10 10 -10 6 0 10 5 10 10 0 6 -4 10 -10 10 -5 0
-10 -4 -10 -10z"/>
<path d="M146 3227 c-6 -21 -7 -21 -21 -3 -11 15 -17 16 -28 8 -8 -7 -17 -9
-20 -5 -4 3 -23 -2 -42 -13 -32 -17 -35 -23 -35 -61 0 -24 5 -43 10 -43 6 0
10 7 10 15 0 15 28 20 78 16 18 -1 24 5 29 31 6 31 7 32 13 8 5 -19 15 -26 48
-33 26 -5 42 -14 42 -23 0 -9 11 -14 35 -14 62 0 72 67 18 115 -20 17 -40 23
-79 24 -46 1 -52 -2 -58 -22z m-34 -49 c-9 -9 -15 -9 -24 0 -9 9 -7 12 12 12
19 0 21 -3 12 -12z"/>
<path d="M1939 3243 c-16 -2 -31 -14 -37 -29 -10 -20 -9 -26 8 -36 11 -7 20
-21 20 -31 0 -16 -5 -18 -27 -12 -34 8 -53 23 -53 41 0 8 -4 14 -10 14 -5 0
-10 -13 -10 -29 0 -17 -4 -32 -9 -35 -18 -11 -41 6 -41 30 0 28 -6 30 -26 9
-22 -21 -33 -19 -40 10 -3 14 -10 25 -16 25 -19 0 -48 -21 -48 -35 0 -8 -9
-15 -20 -15 -11 0 -20 7 -20 15 0 10 -10 15 -30 15 -36 0 -40 -15 -5 -24 14
-4 25 -11 25 -16 0 -13 -36 -13 -61 0 -19 10 -19 10 -1 -22 13 -22 27 -34 45
-36 19 -2 25 1 22 10 -7 20 10 40 31 36 14 -3 18 -11 17 -31 -2 -28 5 -31 45
-21 26 7 29 21 5 27 -17 4 -17 5 0 6 10 0 29 -6 43 -15 14 -9 43 -18 65 -19
35 -2 42 1 51 24 l10 26 20 -25 c15 -19 30 -25 59 -25 33 0 39 3 39 22 0 12 6
24 13 27 8 3 7 8 -6 16 -14 9 -17 19 -12 41 7 30 -1 70 -13 68 -4 -1 -19 -4
-33 -6z"/>
<path d="M446 3216 c-15 -20 -16 -20 -29 -3 -24 30 -54 22 -60 -17 -3 -19 -3
-44 0 -55 7 -27 33 -27 33 -1 0 25 43 54 68 46 27 -9 52 3 52 24 0 28 -46 32
-64 6z"/>
<path d="M998 3174 c-3 -3 -44 -7 -89 -9 -133 -6 -133 -6 -119 -15 19 -12 5
-38 -25 -46 -14 -3 -25 -13 -25 -22 0 -8 -8 -24 -17 -34 -17 -19 -15 -19 67
-17 47 1 177 7 290 14 113 7 214 9 224 5 34 -12 99 14 109 43 11 33 23 34 46
5 20 -24 45 -16 36 12 -3 10 -1 21 5 25 19 12 -28 38 -55 31 -13 -3 -27 -2
-30 4 -3 5 -35 10 -70 10 -51 0 -64 -3 -70 -17 -6 -17 -7 -17 -19 0 -17 22
-104 24 -112 2 -4 -8 -13 -15 -20 -15 -8 0 -17 7 -20 15 -4 10 -21 15 -53 15
-26 0 -50 -3 -53 -6z m135 -68 c6 -16 -2 -28 -14 -20 -12 7 -11 34 0 34 5 0
11 -6 14 -14z m-143 -11 c0 -16 -27 -32 -37 -22 -3 4 -3 13 0 22 8 20 37 20
37 0z m280 -11 c0 -8 -4 -12 -10 -9 -5 3 -10 10 -10 16 0 5 5 9 10 9 6 0 10
-7 10 -16z"/>
<path d="M2054 3143 c-8 -13 -8 -25 -1 -40 12 -27 22 -29 31 -8 3 8 15 15 26
15 11 0 20 7 20 15 0 8 -9 15 -19 15 -11 0 -23 5 -26 10 -9 15 -19 12 -31 -7z"/>
<path d="M537 3143 c-4 -3 -7 -15 -7 -25 0 -27 30 -19 41 10 7 18 5 22 -10 22
-10 0 -21 -3 -24 -7z"/>
<path d="M5090 3012 c0 -5 14 -21 31 -38 l31 -29 -22 38 c-20 34 -40 49 -40
29z"/>
<path d="M5230 2866 c0 -2 8 -10 18 -17 15 -13 16 -12 3 4 -13 16 -21 21 -21
13z"/>
<path d="M5290 2819 c52 -44 212 -108 243 -96 7 3 4 6 -6 6 -32 2 -158 50
-210 81 -33 20 -43 23 -27 9z"/>
<path d="M515 2790 c-5 -17 -15 -20 -66 -20 -35 0 -59 4 -59 11 0 5 -4 7 -10
4 -5 -3 -10 -30 -10 -59 0 -52 1 -54 32 -60 18 -4 34 -2 38 4 4 6 14 8 24 4
15 -6 15 -8 1 -30 -8 -13 -15 -28 -15 -34 0 -16 460 -13 483 4 9 7 17 16 17
19 0 3 -62 3 -137 0 -134 -5 -139 -5 -158 17 -11 12 -19 24 -18 27 4 15 33 23
78 23 45 0 52 3 67 31 l18 31 -80 -5 c-44 -3 -86 -10 -93 -16 -10 -8 -19 -7
-33 4 -15 12 -16 16 -5 24 7 5 21 6 31 4 15 -4 18 -1 13 16 -5 18 -13 21 -58
21 -45 0 -55 -3 -60 -20z m53 -28 c2 -7 -2 -10 -12 -6 -9 3 -16 11 -16 16 0
13 23 5 28 -10z m-8 -91 c0 -4 -11 -6 -25 -3 -14 2 -25 6 -25 8 0 2 11 4 25 4
14 0 25 -4 25 -9z m-7 -28 c-7 -2 -19 -2 -25 0 -7 3 -2 5 12 5 14 0 19 -2 13
-5z"/>
<path d="M297 2753 c-3 -10 -8 -30 -11 -45 -4 -18 -15 -30 -31 -34 -39 -10
-18 -25 23 -18 46 9 53 18 50 72 -2 43 -22 59 -31 25z"/>
<path d="M4190 2750 c8 -5 20 -10 25 -10 6 0 3 5 -5 10 -8 5 -19 10 -25 10 -5
0 -3 -5 5 -10z"/>
<path d="M4258 2723 c7 -3 16 -2 19 1 4 3 -2 6 -13 5 -11 0 -14 -3 -6 -6z"/>
<path d="M4305 2711 c11 -4 38 -11 60 -14 25 -4 33 -4 20 2 -11 4 -38 11 -60
14 -25 4 -33 4 -20 -2z"/>
<path d="M5568 2713 c12 -2 32 -2 45 0 12 2 2 4 -23 4 -25 0 -35 -2 -22 -4z"/>
<path d="M1010 2632 c-50 -5 -58 -18 -15 -26 20 -4 39 -5 42 -3 2 3 17 1 33
-3 21 -6 30 -4 34 6 3 7 2 15 -2 17 -15 9 -59 13 -92 9z"/>
<path d="M2749 2596 c-2 -3 -286 -10 -629 -17 -344 -6 -717 -14 -830 -18 -196
-6 -205 -7 -205 -26 0 -19 6 -20 150 -19 232 3 986 24 1220 34 116 6 284 10
375 11 155 1 190 6 190 30 0 9 -263 13 -271 5z"/>
<path d="M2980 2383 c1 -87 5 -243 10 -348 5 -104 10 -255 11 -335 1 -80 6
-289 13 -466 12 -345 15 -361 63 -349 26 6 52 -5 94 -43 26 -22 29 -32 29 -84
0 -42 4 -60 15 -64 19 -8 38 -69 31 -100 -6 -22 -3 -24 26 -24 18 1 50 7 71
14 33 12 38 12 46 -2 13 -23 -28 -41 -83 -37 -35 3 -46 0 -46 -11 0 -8 -4 -14
-8 -14 -12 0 -33 -50 -27 -61 4 -5 15 -9 26 -9 10 0 19 -3 19 -7 0 -5 12 -8
28 -9 15 0 34 -4 44 -8 10 -5 18 -3 21 6 2 8 3 7 2 -2 -2 -17 18 -40 35 -40 5
0 10 -4 10 -10 0 -14 -13 -12 -36 5 -10 8 -29 15 -41 15 -12 0 -28 6 -35 13
-7 8 -20 12 -30 9 -15 -4 -17 -12 -12 -58 5 -35 3 -59 -5 -68 -8 -9 -9 -21 -2
-37 5 -13 12 -37 16 -52 3 -16 10 -25 16 -21 7 4 9 0 5 -13 -5 -17 1 -24 31
-37 21 -9 45 -21 53 -25 8 -4 40 -14 70 -21 30 -7 64 -16 75 -21 11 -4 67 -11
125 -16 58 -4 110 -8 115 -9 6 -1 25 -2 43 -3 29 -1 32 -4 27 -21 -6 -19 0
-20 475 -20 l481 0 -2 69 c-1 37 1 73 5 79 5 9 64 12 198 12 l190 0 57 59 c53
55 61 59 111 65 30 3 123 12 205 21 163 17 289 43 364 76 61 26 124 23 129 -6
2 -11 11 -27 18 -36 12 -13 14 -41 9 -140 -2 -68 -8 -141 -11 -161 l-6 -38
764 1 c419 1 746 5 725 9 -47 9 -54 16 -39 40 14 23 2 33 -30 25 -13 -3 -36
-1 -51 4 -18 7 -27 7 -27 0 0 -5 7 -12 15 -15 8 -4 13 -10 10 -15 -8 -12 -35
1 -35 17 0 8 -5 14 -12 14 -6 0 -29 8 -49 17 -34 16 -39 22 -39 53 0 19 7 48
15 64 9 16 13 36 10 44 -3 8 6 40 19 71 14 31 29 70 34 86 9 25 11 26 11 8 1
-27 16 -30 29 -7 5 10 28 18 56 21 25 3 49 10 52 14 3 5 17 9 32 8 24 0 25 -1
7 -9 -13 -6 8 -8 60 -7 86 1 225 -9 233 -18 3 -3 -9 -5 -26 -5 -18 0 -32 -4
-32 -10 0 -5 24 -10 53 -11 71 0 141 -10 147 -19 3 -5 29 -7 57 -6 29 2 50 0
48 -5 -3 -4 2 -10 11 -13 22 -8 26 -8 19 4 -3 6 1 10 9 10 9 0 16 -4 16 -9 0
-8 32 -16 105 -25 113 -14 157 -24 150 -36 -3 -4 3 -6 13 -3 10 2 47 -1 82 -7
36 -7 81 -13 100 -15 19 -2 55 -10 80 -18 60 -20 176 -40 192 -34 7 3 3 6 -8
6 -12 1 -64 12 -115 25 -52 14 -130 31 -174 40 -67 13 -234 50 -323 71 -13 3
-20 10 -17 15 3 5 19 5 38 -1 17 -5 95 -11 172 -13 109 -3 155 -8 210 -25 38
-12 108 -24 155 -27 47 -3 103 -12 125 -20 34 -11 96 -25 272 -58 12 -3 31 -9
42 -15 11 -6 28 -11 38 -11 25 0 39 -11 47 -37 6 -18 3 -23 -11 -23 -15 0 -15
-2 -4 -9 10 -6 16 -33 19 -75 l4 -66 455 0 454 0 -2 256 -2 256 -30 -5 c-23
-3 -31 0 -35 15 -3 12 -13 18 -31 18 -23 0 -260 -33 -398 -56 l-43 -7 -1 144
c0 79 -2 162 -3 184 -2 22 -7 162 -11 310 -5 213 -9 273 -20 284 -13 13 -16
11 -26 -17 -6 -18 -16 -32 -23 -32 -14 0 -36 90 -36 148 0 26 -4 41 -10 37 -5
-3 -10 -17 -10 -31 0 -13 -5 -24 -11 -24 -5 0 -8 -4 -5 -9 4 -5 1 -33 -5 -63
-9 -41 -14 -48 -19 -33 -13 37 -20 -32 -18 -172 2 -90 6 -133 14 -133 15 0 30
-273 15 -278 -6 -2 -11 -13 -10 -25 0 -21 1 -21 9 -2 10 22 11 19 13 -48 2
-42 -6 -62 -15 -38 -1 5 -10 2 -18 -7 -13 -14 -12 -15 3 -9 22 8 25 0 31 -78
2 -33 5 -60 6 -60 1 0 3 -12 5 -27 2 -17 -1 -29 -8 -29 -7 -1 -36 -3 -64 -4
-50 -2 -53 0 -53 21 0 13 4 24 10 24 5 0 9 -3 7 -8 -1 -4 1 -8 6 -9 4 -2 7 -1
7 2 0 3 0 10 0 16 0 7 -11 8 -30 4 -30 -7 -30 -6 -30 39 0 34 -5 51 -20 63
-11 10 -20 27 -20 39 0 12 -7 24 -15 28 -20 7 -19 26 1 26 21 0 13 23 -10 26
-20 3 -35 14 -19 14 8 0 8 9 3 27 -25 83 -28 101 -25 138 2 22 -3 54 -11 71
-8 17 -14 55 -13 85 0 30 0 61 0 69 -1 8 0 52 1 98 2 45 -1 82 -6 82 -5 0 -6
49 -3 115 3 63 4 115 1 115 -16 0 -26 -77 -30 -230 -2 -96 -6 -229 -9 -295 -3
-88 -2 -116 6 -105 9 13 10 12 5 -3 -3 -10 -6 -84 -6 -165 0 -81 0 -164 0
-184 -1 -21 4 -55 9 -75 18 -67 29 -155 18 -144 -5 5 -11 20 -13 33 -13 90
-18 107 -25 102 -9 -5 -13 9 -10 34 1 8 -5 25 -14 39 -9 13 -14 30 -12 37 6
14 -16 126 -27 144 -4 7 -2 12 4 12 6 0 8 5 3 12 -4 7 -8 20 -10 28 -2 14 -25
36 -47 43 -8 3 -8 8 1 18 12 15 11 80 -3 113 -4 12 -3 21 3 23 13 5 1 75 -14
80 -14 5 -23 -165 -10 -184 5 -7 5 -18 1 -25 -4 -7 -7 -25 -6 -40 3 -35 -11
-43 -33 -18 -18 20 -13 40 10 40 10 0 11 5 2 24 -8 17 -14 21 -20 13 -4 -7 -5
5 -1 26 4 22 2 37 -4 37 -5 0 -13 46 -17 102 -4 57 -11 110 -16 119 -5 9 -9
32 -10 50 -2 19 -9 47 -18 62 -12 21 -13 30 -4 35 9 6 9 17 1 47 -7 22 -12 72
-12 111 -1 61 3 76 28 115 l29 44 -32 -29 c-17 -17 -36 -46 -41 -65 -6 -22 -7
-157 -3 -355 4 -239 3 -317 -6 -312 -7 5 -11 0 -11 -13 0 -12 -4 -21 -10 -21
-6 0 -10 29 -10 66 0 45 -3 63 -11 58 -17 -10 -29 16 -29 64 0 24 -5 75 -12
115 -11 69 -12 71 -24 42 -7 -17 -9 -38 -4 -50 5 -12 4 -29 -2 -39 -6 -10 -8
-40 -6 -67 6 -56 -3 -75 -28 -65 -18 7 -18 8 -1 20 20 16 22 36 3 36 -17 0
-28 24 -20 45 4 8 2 15 -3 15 -5 0 -8 18 -8 40 0 22 -3 40 -8 40 -5 0 -5 9 -2
20 5 15 2 20 -11 20 -14 0 -15 3 -6 12 16 16 15 46 -3 64 -9 10 -15 34 -15 63
0 27 -5 63 -12 81 -10 30 -12 32 -19 14 -7 -18 -8 -18 -8 3 -1 12 -6 25 -12
29 -8 4 -9 -72 -6 -272 3 -154 3 -268 0 -255 -3 18 -7 21 -13 11 -7 -11 -12
-7 -21 14 -11 23 -10 29 1 36 8 5 11 13 6 17 -5 4 -11 2 -13 -4 -5 -15 -33
-18 -33 -4 0 5 7 11 15 15 8 3 15 10 15 15 0 6 -7 8 -15 5 -10 -4 -15 0 -15
14 0 11 -5 22 -10 24 -6 2 -11 20 -12 41 -1 20 -5 37 -10 37 -4 0 -8 -5 -8
-11 0 -5 -5 -7 -11 -3 -8 4 -7 9 2 15 11 6 10 11 -3 26 -9 10 -21 38 -28 63
-7 24 -21 52 -31 61 -23 20 -24 42 -4 59 22 18 18 30 -8 30 -13 0 -26 9 -32
23 -6 12 -16 21 -23 20 -8 -2 -12 12 -13 40 -1 42 -1 42 -11 12 -5 -16 -10
-106 -9 -199 1 -94 -3 -174 -8 -180 -6 -6 -11 -36 -14 -66 -3 -46 -4 -41 -5
25 -1 44 -7 87 -12 95 -8 11 -9 7 -4 -14 6 -26 5 -28 -8 -15 -9 8 -14 17 -12
20 1 3 -3 16 -9 30 -7 13 -14 46 -15 73 -1 28 -10 62 -23 82 -11 19 -16 34
-10 34 6 0 11 5 11 10 0 6 -7 10 -16 10 -9 0 -25 9 -34 20 -12 14 -26 19 -44
16 -23 -4 -26 -1 -31 32 -11 67 -16 84 -22 78 -6 -6 -8 -24 -12 -128 -1 -38
-21 -55 -21 -19 0 14 -10 21 -37 26 -37 7 -37 8 -13 17 20 7 22 11 10 18 -12
8 -12 10 3 16 11 4 17 17 17 38 -1 30 -1 30 -16 11 -8 -11 -22 -19 -30 -17 -9
2 -14 -6 -14 -20 -1 -20 -3 -18 -15 9 -8 18 -26 38 -40 45 -18 8 -22 14 -13
20 11 6 11 8 0 8 -7 0 -17 -10 -22 -22 -9 -22 -9 -22 -9 3 -1 26 -25 46 -35
30 -3 -5 -7 -33 -8 -64 -2 -55 -2 -55 -21 -34 -10 12 -21 33 -24 47 -2 14 -19
35 -36 48 -18 12 -45 32 -60 44 -22 18 -30 20 -36 9 -6 -10 -10 -9 -15 4 -8
23 -31 4 -41 -32 -5 -21 -8 -24 -16 -12 -6 9 -9 10 -9 2 0 -19 -28 -16 -79 9
-56 26 -84 56 -77 81 3 14 2 16 -9 7 -8 -7 -17 -20 -20 -31 -4 -10 -13 -19
-21 -19 -8 0 -12 4 -9 10 3 5 0 10 -7 10 -8 0 -22 22 -33 50 -11 27 -25 52
-31 54 -14 5 -57 -28 -48 -37 3 -3 -11 -17 -30 -32 -20 -15 -36 -34 -36 -41 0
-8 -6 -14 -14 -14 -7 0 -16 -9 -19 -20 -7 -26 -43 -26 -57 0 -13 25 -36 26
-49 3 -9 -15 -10 -16 -11 -2 0 14 -7 14 -77 0 -78 -17 -134 -48 -111 -62 7 -4
-4 -10 -26 -14 -34 -7 -37 -10 -32 -34 3 -14 2 -32 -3 -39 -5 -8 -10 13 -14
57 -3 39 -13 81 -21 93 -9 12 -16 17 -16 10 0 -7 -4 -10 -10 -7 -5 3 -10 0
-10 -7 0 -17 -38 -41 -52 -32 -6 4 -17 -1 -25 -11 -13 -18 -13 -18 -13 1 -1
19 -1 19 -15 0 -14 -19 -16 -19 -28 -2 -14 19 -47 13 -47 -10 0 -8 -7 -14 -15
-14 -10 0 -12 6 -8 18 6 15 5 15 -10 3 -9 -7 -17 -21 -17 -30 -1 -9 -6 -26
-13 -39 -12 -20 -14 -16 -26 55 -17 105 -18 108 -35 94 -7 -6 -21 -29 -31 -51
-11 -24 -25 -40 -35 -40 -10 0 -23 -13 -30 -30 -7 -16 -21 -32 -32 -36 -15 -5
-17 -8 -8 -14 11 -7 10 -11 -3 -24 -19 -20 -44 -21 -62 -3 -17 18 -7 32 28 41
15 3 27 10 27 15 0 13 -34 24 -38 12 -2 -6 -14 -11 -27 -11 -13 0 -27 -4 -30
-10 -3 -5 -2 -10 4 -10 16 0 18 -33 4 -67 -15 -38 -17 -133 -3 -133 6 0 10
-11 10 -25 0 -14 8 -34 18 -45 14 -16 17 -35 16 -107 -3 -127 -2 -121 -17
-102 -7 9 -17 14 -23 12 -12 -4 -33 134 -38 262 -2 50 -7 101 -9 115 -3 14
-11 81 -18 150 l-13 125 -15 -60 c-8 -33 -16 -55 -18 -48 -3 7 -11 9 -19 6 -7
-3 -11 -9 -8 -15 3 -5 3 -20 0 -33 -4 -17 -11 -22 -26 -18 -11 3 -20 0 -20 -6
0 -6 -7 -11 -16 -11 -14 0 -14 -1 0 -16 21 -21 20 -57 -1 -76 -26 -22 -51 -29
-57 -15 -2 7 -5 2 -5 -10 -1 -13 8 -28 18 -35 10 -6 17 -18 14 -25 -3 -8 0
-26 8 -39 10 -19 10 -27 2 -32 -7 -4 -14 -41 -16 -86 -2 -52 -8 -81 -17 -86
-8 -5 -16 -30 -17 -57 -2 -30 -9 -53 -20 -60 -21 -16 -23 -16 -48 3 -16 12
-18 18 -7 34 6 10 8 21 3 24 -8 5 -19 159 -27 396 -3 74 -9 139 -15 145 -5 5
-9 -3 -9 -23 0 -18 -4 -32 -10 -32 -5 0 -10 11 -10 24 0 37 -10 55 -27 49 -12
-5 -12 -7 -1 -14 9 -6 7 -9 -8 -9 -29 0 -54 -31 -55 -66 0 -24 -2 -26 -8 -9
-7 16 -9 14 -14 -13 -4 -18 -1 -44 5 -58 9 -19 9 -36 0 -70 -7 -25 -10 -50 -7
-55 4 -5 -1 -9 -9 -9 -9 0 -16 7 -16 15 0 15 -20 22 -20 8 0 -5 -3 -18 -6 -30
-5 -19 -2 -23 16 -23 18 0 20 -4 13 -22 -4 -13 -6 -48 -5 -79 3 -55 2 -56 -26
-62 -16 -3 -44 -4 -61 -2 -26 3 -32 1 -27 -11 3 -8 2 -13 -3 -10 -4 3 -9 39
-9 81 -1 41 -4 80 -8 86 -4 6 -1 15 6 19 9 6 10 29 1 101 -25 225 -39 274 -63
213 -6 -17 -21 -35 -32 -40 -13 -6 -20 -17 -19 -29 3 -23 -16 -65 -29 -65 -4
0 -8 6 -8 14 0 18 -33 30 -60 21 -33 -10 -25 -50 20 -95 47 -47 50 -62 12 -54
-35 7 -61 -18 -43 -40 11 -14 5 -49 -8 -42 -4 3 -8 -5 -8 -17 -2 -16 0 -18 6
-8 6 9 16 11 27 6 17 -6 17 -8 2 -14 -15 -5 -14 -9 7 -33 13 -15 26 -24 29
-21 3 3 -2 12 -12 20 -15 13 -15 13 5 4 15 -8 20 -17 16 -31 -3 -11 -10 -17
-16 -13 -6 4 -8 0 -4 -10 3 -9 1 -18 -6 -21 -8 -3 -6 -5 3 -5 11 -1 15 -14 17
-43 l1 -43 -17 39 c-17 36 -19 37 -24 15 -13 -48 -8 -56 39 -69 26 -7 52 -13
60 -13 7 0 15 -9 17 -19 3 -10 1 -18 -4 -18 -5 0 -9 4 -9 8 0 14 -29 10 -34
-5 -3 -7 -11 -13 -17 -13 -9 0 -9 4 0 14 8 10 9 16 1 21 -5 3 -10 1 -10 -4 0
-6 -4 -11 -10 -11 -5 0 -10 6 -10 14 0 9 -18 16 -56 21 -30 3 -57 12 -60 18
-9 23 -10 137 -1 137 4 0 6 4 3 9 -11 18 -16 121 -6 121 5 0 10 7 10 15 0 8
-4 15 -10 15 -6 0 -10 26 -10 59 0 52 -2 59 -18 54 -14 -3 -17 -12 -14 -39 2
-19 7 -34 11 -34 3 0 7 -48 8 -106 2 -79 -1 -109 -11 -120 -12 -11 -16 -11
-26 1 -7 8 -20 15 -29 14 -10 0 -12 -2 -3 -6 6 -2 10 -9 6 -14 -6 -11 21 -41
29 -32 3 3 13 -1 21 -10 14 -13 14 -16 1 -27 -8 -7 -15 -19 -15 -27 0 -11 -4
-11 -20 -3 -11 6 -20 19 -20 28 0 10 -5 23 -10 28 -6 6 -13 31 -15 55 -2 24
-6 69 -9 99 -3 30 -8 127 -11 214 -3 88 -8 162 -10 165 -5 5 -9 -25 -6 -48 2
-7 -2 -10 -8 -6 -6 3 -11 2 -11 -4 0 -5 6 -12 13 -14 10 -4 10 -6 0 -6 -7 -1
-13 -8 -13 -16 0 -8 -7 -15 -16 -15 -8 0 -13 3 -11 8 3 4 -8 7 -25 8 -26 1
-29 -2 -25 -22 3 -16 -2 -24 -16 -28 -14 -3 -18 -11 -14 -25 3 -12 1 -21 -5
-21 -5 0 -8 -21 -6 -47 2 -42 0 -49 -20 -58 -29 -13 -28 -27 6 -48 l27 -18
-27 6 c-16 3 -28 1 -28 -5 0 -5 4 -10 9 -10 5 0 11 -8 15 -17 3 -10 9 -24 12
-30 8 -18 -63 -17 -82 1 -7 8 -19 16 -26 18 -7 3 -12 25 -12 59 0 30 -3 56 -7
59 -3 3 -10 41 -13 85 -4 44 -11 82 -16 83 -6 2 -10 16 -10 30 0 15 -5 34 -10
42 -7 11 -10 7 -10 -18 0 -22 -8 -39 -25 -54 -13 -11 -22 -25 -19 -30 3 -5 -2
-16 -12 -23 -17 -13 -17 -16 -4 -25 10 -6 11 -10 3 -10 -7 0 -13 -11 -13 -24
0 -13 -6 -27 -12 -29 -10 -4 -9 -8 2 -16 12 -8 12 -20 2 -83 -7 -40 -9 -88 -6
-107 5 -25 4 -32 -4 -27 -7 4 -12 14 -12 22 0 10 -7 8 -25 -8 -29 -25 -32 -38
-9 -38 9 0 14 -7 12 -17 -5 -25 -24 -26 -36 -1 l-11 23 0 -22 c-1 -16 -7 -23
-21 -23 -11 0 -20 -5 -20 -10 0 -6 -13 -9 -30 -8 -24 2 -30 7 -31 28 -1 17 -4
12 -9 -15 -5 -31 -7 -18 -9 53 0 50 -5 92 -10 92 -11 0 -19 42 -26 130 -3 36
-7 74 -9 85 -2 11 -7 43 -11 72 -4 29 -14 60 -22 70 -8 10 -12 13 -9 7 3 -7 3
-47 -1 -90 -6 -66 -8 -73 -14 -44 l-6 35 -2 -35 c0 -19 3 -49 8 -65 5 -18 4
-40 -2 -55 -5 -14 -11 -37 -13 -52 -9 -67 -13 -94 -14 -108 0 -13 -1 -13 -11
0 -8 12 -9 8 -4 -13 5 -25 4 -27 -13 -18 -17 9 -19 6 -21 -35 -1 -43 0 -45 21
-39 21 5 21 5 -2 -9 -19 -11 -27 -11 -33 -3 -5 8 -7 5 -5 -8 2 -11 17 -27 35
-35 43 -20 42 -30 -2 -16 -19 6 -35 14 -35 18 0 4 -7 5 -16 1 -15 -5 -16 2
-10 73 5 59 4 75 -4 64 -9 -12 -10 -7 -8 23 2 20 0 37 -4 37 -4 0 -8 -12 -8
-26 0 -14 -4 -23 -9 -19 -5 3 -11 -5 -13 -17 -2 -19 -10 -24 -45 -26 -27 -2
-43 1 -43 8 0 6 -4 8 -10 5 -6 -4 -10 5 -10 19 0 14 -4 26 -8 26 -5 0 -14 60
-20 133 -17 205 -26 275 -36 284 -5 4 -7 2 -4 -7 3 -8 -1 -46 -7 -85 -9 -47
-13 -59 -14 -36 -2 58 -12 27 -17 -51 -7 -99 -22 -159 -45 -181 -23 -22 -25
-37 -3 -37 9 0 14 -3 12 -7 -2 -5 -13 -28 -25 -53 -11 -25 -28 -51 -37 -59 -9
-7 -16 -20 -16 -29 0 -8 -16 -34 -35 -58 -19 -23 -35 -49 -35 -58 0 -9 -6 -16
-13 -16 -21 0 -70 -57 -64 -74 3 -8 2 -18 -3 -21 -5 -3 -9 35 -9 85 0 49 -2
93 -5 98 -3 5 -8 84 -11 177 -4 94 -9 174 -12 178 -3 5 1 20 8 34 11 20 11 26
-1 33 -10 7 -11 10 -2 10 6 0 12 4 12 10 0 5 -5 9 -12 7 -6 -1 -15 13 -18 31
-4 18 -11 36 -15 40 -11 11 -44 -41 -50 -81 -5 -27 -11 -37 -21 -33 -15 6 -18
-12 -14 -86 1 -20 -8 -54 -20 -78 -18 -35 -19 -44 -8 -51 10 -7 9 -9 -5 -9
-11 0 -21 -9 -24 -20 -3 -11 -12 -20 -19 -20 -17 0 -18 -17 -1 -23 6 -3 -2 -6
-19 -6 -24 -1 -33 -8 -47 -36 -9 -19 -14 -42 -11 -50 7 -18 -24 -58 -37 -49
-13 8 -11 -10 4 -25 10 -11 9 -13 -5 -8 -10 4 -18 3 -18 -2 0 -4 -11 -13 -25
-19 l-25 -12 -2 93 c-1 50 -3 113 -3 140 0 26 -2 47 -5 47 -3 0 -6 55 -7 122
-1 67 -6 124 -11 127 -5 3 -12 18 -16 34 -14 60 -36 19 -36 -70 0 -34 -6 -60
-16 -72 -13 -15 -16 -38 -15 -103 1 -46 -1 -91 -5 -101 -10 -26 -32 -20 -37
11 -2 16 -5 7 -6 -23 l-2 -50 -15 28 c-9 16 -14 49 -13 80 4 106 -25 401 -41
422 -4 6 -13 177 -19 380 -16 528 -21 605 -37 605 -11 0 -14 -31 -14 -157z
m3607 -839 c-3 -3 -12 -4 -19 -1 -8 3 -5 6 6 6 11 1 17 -2 13 -5z m98 -13 c3
-5 1 -13 -5 -16 -15 -9 -43 3 -35 15 8 13 32 13 40 1z m-195 -118 c0 -32 -5
-28 -14 10 -4 19 -3 26 4 22 5 -3 10 -18 10 -32z m-251 -90 c-1 -49 -2 -54 -9
-29 -8 26 -3 86 6 86 2 0 4 -26 3 -57z m259 21 c-2 -29 1 -37 15 -40 10 -1 17
4 17 13 0 34 25 3 31 -38 4 -28 7 -34 7 -16 1 15 7 27 12 27 14 0 12 -52 -4
-72 -7 -10 -16 -15 -19 -12 -3 3 -11 3 -18 -2 -9 -5 -7 -11 7 -21 16 -12 17
-15 4 -23 -8 -5 -21 -10 -27 -10 -14 0 -16 -10 -7 -34 6 -15 8 -15 20 1 18 24
18 2 -1 -33 -8 -16 -12 -37 -9 -46 3 -11 0 -18 -8 -18 -9 0 -14 22 -15 81 -2
45 -7 87 -13 94 -8 9 -8 15 0 20 6 3 8 10 5 15 -3 5 -1 11 5 15 15 9 12 25 -5
25 -11 0 -15 12 -15 48 0 44 5 62 17 62 3 0 3 -16 1 -36z m344 -11 c2 -16 1
-62 -3 -103 -3 -41 -5 -101 -4 -132 1 -32 -1 -58 -5 -58 -16 0 -30 95 -30 204
0 107 1 116 19 116 13 0 20 -9 23 -27z m2685 -15 c-3 -8 -6 -5 -6 6 -1 11 2
17 5 13 3 -3 4 -12 1 -19z m-4018 -35 c0 -25 -1 -26 -9 -8 -12 27 -12 35 0 35
6 0 10 -12 9 -27z m-169 -73 c11 -11 15 -20 9 -20 -11 0 -39 24 -39 34 0 11
10 6 30 -14z m-1000 -42 c0 -18 -2 -20 -9 -8 -6 8 -7 18 -5 22 9 14 14 9 14
-14z m317 -10 c-3 -7 -5 -2 -5 12 0 14 2 19 5 13 2 -7 2 -19 0 -25z m183 -48
c0 -32 4 -40 18 -40 9 0 23 -9 30 -20 16 -26 5 -48 -12 -24 -14 19 -36 11 -36
-12 0 -29 -19 -13 -27 24 l-7 37 -7 -30 c-6 -26 -7 -25 -8 15 -1 63 8 90 30
90 15 0 19 -7 19 -40z m1733 20 c-3 -11 -7 -20 -9 -20 -2 0 -4 9 -4 20 0 11 4
20 9 20 5 0 7 -9 4 -20z m2954 -32 c-3 -7 -5 -2 -5 12 0 14 2 19 5 13 2 -7 2
-19 0 -25z m-4451 -85 c-3 -3 -18 -2 -33 2 l-28 7 30 12 c25 11 31 10 33 -1 2
-8 1 -17 -2 -20z m247 -3 c3 -11 1 -20 -4 -20 -5 0 -9 9 -9 20 0 11 2 20 4 20
2 0 6 -9 9 -20z m277 10 c0 -5 -10 -10 -22 -10 -19 0 -20 2 -8 10 19 13 30 13
30 0z m-1320 -40 c0 -5 -4 -10 -10 -10 -5 0 -10 5 -10 10 0 6 5 10 10 10 6 0
10 -4 10 -10z m559 -52 c1 -10 -6 -18 -14 -18 -17 0 -18 4 -8 51 7 33 7 33 14
9 4 -14 7 -33 8 -42z m751 58 c0 -11 -19 -15 -25 -6 -3 5 1 10 9 10 9 0 16 -2
16 -4z m-57 -43 c-3 -7 -9 -13 -14 -13 -11 0 -12 34 -2 43 9 10 22 -13 16 -30z
m667 27 c0 -5 -5 -10 -11 -10 -5 0 -7 5 -4 10 3 6 8 10 11 10 2 0 4 -4 4 -10z
m-3083 -37 c-3 -10 -5 -4 -5 12 0 17 2 24 5 18 2 -7 2 -21 0 -30z m1895 -6 c3
-13 1 -32 -3 -43 -5 -13 -8 -7 -8 24 -1 46 4 55 11 19z m28 -28 c0 -22 -4 -38
-8 -35 -8 5 -4 76 4 76 2 0 4 -18 4 -41z m214 26 c14 -11 22 -12 27 -4 10 17
60 2 53 -15 -3 -8 4 -16 17 -19 15 -4 20 -11 15 -22 -3 -9 -6 -39 -6 -66 0
-48 0 -48 -26 -39 -17 7 -23 7 -19 -1 4 -5 18 -14 31 -19 13 -5 24 -14 24 -20
0 -8 -6 -8 -20 0 -18 9 -20 8 -20 -16 0 -20 -4 -25 -16 -20 -9 3 -18 6 -20 6
-2 0 -4 11 -4 24 0 26 -27 44 -32 21 -2 -11 -7 -12 -18 -4 -11 8 -12 12 -3 15
10 4 10 10 0 25 -20 32 -26 22 -24 -38 l2 -58 89 -23 c48 -13 91 -21 94 -17 3
3 8 32 10 65 4 51 7 60 24 60 10 0 21 -7 24 -15 3 -8 14 -17 25 -20 15 -5 19
-16 19 -55 l0 -49 -42 -5 c-228 -27 -235 -27 -310 -6 -39 11 -76 24 -80 28 -5
5 -11 72 -14 150 -5 136 -4 142 15 142 11 0 21 -6 24 -12 3 -10 7 -10 18 -2
20 17 57 11 73 -12 14 -18 16 -18 33 -1 10 10 13 17 5 17 -7 0 -12 5 -12 10 0
14 22 12 44 -5z m-988 -6 c43 -11 44 -12 41 -48 -2 -20 3 -50 10 -68 7 -18 10
-48 7 -68 -4 -25 -2 -35 8 -35 9 0 9 -3 -2 -10 -22 -14 -33 3 -31 52 2 101
-26 162 -69 151 -23 -6 -28 -22 -44 -137 -9 -61 -16 -82 -28 -84 -15 -3 -17
12 -20 121 l-3 124 34 1 c19 1 36 4 39 7 7 7 6 7 58 -6z m4084 1 c0 -5 -5 -10
-11 -10 -5 0 -7 5 -4 10 3 6 8 10 11 10 2 0 4 -4 4 -10z m-2470 -16 c0 -2 -9
-4 -20 -4 -11 0 -20 4 -20 9 0 5 9 7 20 4 11 -3 20 -7 20 -9z m657 0 c-3 -3
-12 -4 -19 -1 -8 3 -5 6 6 6 11 1 17 -2 13 -5z m-1570 -56 c-3 -8 -6 -5 -6 6
-1 11 2 17 5 13 3 -3 4 -12 1 -19z m-117 -3 c0 -8 -7 -15 -16 -15 -14 0 -14 3
-4 15 7 8 14 15 16 15 2 0 4 -7 4 -15z m-1565 -4 c3 -5 1 -12 -5 -16 -5 -3
-10 1 -10 9 0 18 6 21 15 7z m1752 -28 c-3 -10 -5 -4 -5 12 0 17 2 24 5 18 2
-7 2 -21 0 -30z m556 0 c-7 -2 -19 -2 -25 0 -7 3 -2 5 12 5 14 0 19 -2 13 -5z
m-2316 -45 c-3 -7 -5 -2 -5 12 0 14 2 19 5 13 2 -7 2 -19 0 -25z m1090 -10
c-3 -8 -6 -5 -6 6 -1 11 2 17 5 13 3 -3 4 -12 1 -19z m2816 -15 c59 -3 107
-10 107 -15 0 -4 -75 -8 -167 -8 -188 0 -357 -18 -613 -63 -117 -21 -202 -29
-196 -19 13 22 448 93 641 105 104 7 125 7 228 0z m-3819 -112 c4 -5 -3 -7
-14 -4 -23 6 -26 13 -6 13 8 0 17 -4 20 -9z m3890 -73 c-8 -28 -1 -24 -51 -32
-38 -5 -43 -4 -43 13 0 14 11 22 38 29 59 16 64 15 56 -10z m2375 -53 c8 0 16
-6 19 -12 2 -7 -2 -13 -10 -13 -7 0 -23 -3 -36 -6 -22 -6 -23 -5 -17 37 9 59
19 71 25 29 3 -21 11 -35 19 -35z m-2539 26 c0 -11 -51 -21 -113 -21 -61 0
-57 8 10 20 67 11 103 11 103 1z m-3576 -10 c15 -6 8 -10 -32 -18 -39 -8 -52
-7 -52 2 0 6 3 15 7 18 8 9 53 8 77 -2z m4055 -7 c2 -2 -19 -4 -47 -4 -29 0
-52 4 -52 9 0 8 90 3 99 -5z m-709 -3 c0 -4 -36 -11 -80 -15 -44 -3 -93 -9
-110 -12 -23 -5 -30 -3 -30 9 0 14 17 17 103 20 56 1 105 4 110 5 4 1 7 -2 7
-7z m-306 -7 c9 -3 16 -12 16 -19 0 -12 -137 -31 -148 -20 -9 8 19 34 41 38
36 7 74 7 91 1z m513 -111 c-4 -49 -12 -114 -18 -145 -11 -57 -13 -58 -45 -58
-18 0 -45 5 -59 10 -26 10 -26 10 -22 103 7 124 11 143 30 139 12 -2 15 2 11
13 -5 11 -2 14 10 9 9 -3 16 -11 16 -16 0 -6 13 -8 30 -6 16 2 32 0 34 -6 2
-6 5 1 5 17 1 15 4 27 7 27 4 0 4 -39 1 -87z m-272 62 c17 -7 24 -14 16 -14
-8 -1 -12 -4 -9 -7 4 -3 15 -1 26 5 28 15 30 4 24 -116 l-5 -102 -31 6 c-17 3
-35 9 -41 13 -26 21 -105 8 -105 -16 0 -24 -17 -15 -22 11 -6 28 0 174 7 194
4 11 8 11 20 1 14 -12 20 -7 16 14 -1 5 21 6 49 2 57 -8 66 -1 18 13 -20 5
-25 9 -13 10 11 0 34 -6 50 -14z m245 5 c0 -5 -4 -10 -10 -10 -5 0 -10 5 -10
10 0 6 5 10 10 10 6 0 10 -4 10 -10z m-972 -20 c12 -19 10 -20 -45 -20 -57 0
-57 0 -30 15 15 8 35 11 44 8 11 -4 14 -3 9 5 -4 7 -3 12 1 12 5 0 14 -9 21
-20z m1102 -10 c0 -11 -4 -20 -10 -20 -5 0 -10 9 -10 20 0 11 5 20 10 20 6 0
10 -9 10 -20z m-1230 -5 c10 -13 8 -15 -11 -14 -24 1 -234 -15 -356 -27 -59
-6 -63 -5 -63 14 0 19 6 20 108 21 59 1 134 5 167 9 108 13 142 12 155 -3z
m-2536 -10 c3 -8 1 -15 -4 -15 -6 0 -10 7 -10 15 0 8 2 15 4 15 2 0 6 -7 10
-15z m40 3 c-3 -4 -9 -8 -15 -8 -5 0 -9 4 -9 8 0 5 7 9 15 9 8 0 12 -4 9 -9z
m3082 1 c3 -6 15 -9 25 -6 18 5 19 -2 19 -101 0 -58 -3 -103 -6 -99 -3 3 -16
2 -29 -3 -15 -6 -29 -4 -43 6 -11 8 -46 15 -76 15 -50 2 -57 4 -62 25 -4 13
-3 41 1 62 5 20 10 46 12 56 5 30 13 33 28 13 13 -18 14 -18 35 3 34 34 83 49
96 29z m-2726 -29 c0 -5 -4 -10 -10 -10 -5 0 -10 5 -10 10 0 6 5 10 10 10 6 0
10 -4 10 -10z m3360 -2 c0 -10 3 -9 9 1 7 11 11 10 20 -7 14 -26 14 -79 1 -87
-5 -3 -10 -19 -10 -34 0 -19 -12 -41 -36 -67 l-36 -38 6 55 c13 108 29 189 38
189 4 0 8 -6 8 -12z m-3305 -8 c-11 -5 -27 -9 -35 -9 -13 -1 -13 0 0 9 8 5 24
9 35 9 l20 0 -20 -9z m1337 -11 c11 -6 18 -7 14 -1 -4 6 19 8 62 5 78 -7 94
-13 31 -13 -52 0 -118 -17 -139 -35 -10 -9 -70 -14 -195 -18 -99 -3 -170 -3
-157 0 13 2 19 9 16 15 -5 7 -1 9 9 5 10 -3 17 -3 17 2 0 7 81 20 165 26 17 1
37 5 45 8 41 17 106 20 132 6z m-1469 -6 c-7 -2 -19 -2 -25 0 -7 3 -2 5 12 5
14 0 19 -2 13 -5z m1777 -15 c0 -4 -5 -8 -11 -8 -5 0 -7 -4 -4 -10 4 -6 -6
-10 -22 -10 -23 0 -25 2 -13 11 12 8 9 10 -12 6 -16 -2 -28 -1 -28 4 0 4 12 9
28 11 46 5 62 4 62 -4z m-1357 -25 c-14 -3 -24 -14 -28 -34 -9 -40 -17 -31 -9
9 5 27 11 32 33 31 22 -2 23 -2 4 -6z m-385 -19 c14 -15 14 -16 -3 -13 -10 2
-20 10 -23 17 -5 17 6 15 26 -4z m-95 -11 c-7 -2 -19 -2 -25 0 -7 3 -2 5 12 5
14 0 19 -2 13 -5z m-103 -43 c0 -5 -7 -10 -15 -10 -8 0 -15 5 -15 10 0 6 7 10
15 10 8 0 15 -4 15 -10z m740 0 c12 -8 9 -10 -13 -10 -16 0 -26 4 -22 10 8 12
16 12 35 0z m-982 -20 c-7 -10 -14 -17 -17 -15 -4 4 18 35 25 35 2 0 -1 -9 -8
-20z m562 10 c0 -5 -4 -10 -10 -10 -5 0 -10 5 -10 10 0 6 5 10 10 10 6 0 10
-4 10 -10z m440 -36 c0 -2 -21 -4 -47 -3 -32 0 -42 3 -29 8 18 7 76 3 76 -5z
m-70 -38 c0 -11 -19 -15 -25 -6 -3 5 1 10 9 10 9 0 16 -2 16 -4z m-247 -143
c-7 -2 -21 -2 -30 0 -10 3 -4 5 12 5 17 0 24 -2 18 -5z"/>
<path d="M6380 376 c0 -8 4 -17 9 -20 5 -4 7 3 4 14 -6 23 -13 26 -13 6z"/>
<path d="M6371 314 c0 -11 3 -14 6 -6 3 7 2 16 -1 19 -3 4 -6 -2 -5 -13z"/>
<path d="M0 2420 c0 -10 64 -20 130 -19 47 1 51 2 25 9 -44 12 -155 19 -155
10z"/>
<path d="M0 2223 l0 -48 68 -14 c37 -8 80 -16 95 -19 l28 -4 -3 53 -3 54 -45
6 c-25 3 -66 9 -92 13 l-48 8 0 -49z"/>
<path d="M1325 1840 c4 -6 11 -8 16 -5 14 9 11 15 -7 15 -8 0 -12 -5 -9 -10z"/>
<path d="M1324 1813 c11 -11 46 -14 46 -3 0 6 -12 10 -27 10 -14 0 -23 -3 -19
-7z"/>
<path d="M2083 1748 c-13 -6 -23 -17 -23 -25 0 -10 5 -11 19 -3 11 5 27 7 36
4 16 -6 34 9 35 29 0 10 -41 7 -67 -5z"/>
<path d="M1080 1565 c0 -179 1 -185 20 -185 28 0 35 24 22 78 -9 41 -8 47 14
68 13 13 28 24 34 24 14 0 13 43 -2 58 -8 8 -8 15 0 25 8 9 29 12 72 9 41 -3
60 -1 60 7 0 6 -8 15 -17 18 -10 4 -24 15 -31 25 -7 10 -18 18 -24 18 -6 0
-19 6 -27 14 -9 7 -40 16 -68 19 l-53 6 0 -184z"/>
<path d="M7672 1708 c-14 -14 -16 -28 -3 -28 9 0 24 30 18 36 -2 2 -9 -2 -15
-8z"/>
<path d="M2107 1649 c-10 -11 -22 -17 -27 -14 -6 4 -10 -1 -10 -11 0 -13 3
-14 13 -5 11 8 18 6 32 -9 15 -17 16 -24 7 -46 -9 -19 -17 -24 -32 -19 -16 5
-20 2 -20 -15 0 -27 22 -35 57 -18 25 12 28 18 29 68 2 53 -9 91 -24 89 -4 0
-15 -9 -25 -20z"/>
<path d="M8411 1636 c-13 -14 -22 -29 -20 -35 2 -6 17 5 32 24 32 40 22 48
-12 11z"/>
<path d="M5065 1622 c-16 -16 -1 -30 36 -34 28 -2 43 1 49 11 6 12 9 11 13 -5
3 -10 4 -31 2 -46 -2 -17 2 -28 8 -28 7 0 5 -5 -3 -10 -11 -7 -11 -10 -2 -10
7 0 16 -9 20 -20 5 -13 8 10 9 60 l1 80 -36 2 c-21 0 -49 2 -64 3 -15 1 -30 0
-33 -3z"/>
<path d="M9600 1590 c0 -6 7 -10 15 -10 8 0 15 2 15 4 0 2 -7 6 -15 10 -8 3
-15 1 -15 -4z"/>
<path d="M6792 1570 c0 -14 2 -19 5 -12 2 6 2 18 0 25 -3 6 -5 1 -5 -13z"/>
<path d="M1247 1563 c-11 -10 -8 -28 7 -48 13 -18 14 -17 29 12 9 17 13 33 10
37 -8 8 -38 8 -46 -1z"/>
<path d="M1413 1534 c-6 -3 -22 -26 -34 -51 -21 -43 -21 -46 -5 -80 22 -46 11
-58 -40 -43 -62 19 -97 10 -107 -25 -5 -16 -19 -50 -30 -74 -16 -32 -18 -46
-9 -49 15 -5 16 -47 0 -75 -18 -35 -77 -344 -84 -442 -7 -104 -19 -158 -38
-174 -7 -6 -60 -13 -116 -16 -57 -3 -110 -11 -117 -17 -17 -14 -17 -72 1 -106
8 -15 28 -40 45 -56 22 -21 29 -36 25 -51 -7 -28 24 -55 61 -52 28 2 30 -1 33
-37 2 -22 -1 -49 -7 -60 -5 -12 -12 -45 -14 -74 l-4 -52 133 0 c112 0 134 2
134 15 0 8 -4 15 -9 15 -5 0 -3 14 5 30 19 37 26 38 23 2 -1 -15 -1 -35 -1
-44 2 -17 43 -18 712 -18 391 0 710 3 710 8 0 4 -9 18 -19 31 -19 25 -19 25
-63 8 -25 -10 -52 -15 -61 -11 -31 12 -41 74 -28 176 24 184 44 283 58 300 8
9 32 19 54 23 l38 7 -5 46 c-3 26 -9 67 -14 92 -11 59 -12 71 -10 163 2 101
-9 119 -85 137 -31 8 -68 22 -81 33 -13 10 -32 16 -41 13 -10 -3 -76 15 -148
40 -71 25 -141 48 -155 51 -14 3 -33 13 -43 21 -10 9 -36 17 -57 18 -59 3
-275 65 -315 90 -11 7 -45 16 -75 20 -30 3 -66 14 -80 22 -14 9 -27 17 -30 17
-22 1 -90 30 -91 39 -1 6 0 38 1 71 1 51 6 63 28 82 23 19 25 24 12 33 -16 10
-37 12 -57 4z m607 -664 c0 -38 -27 -47 -42 -15 -8 18 -8 28 1 39 18 22 41 8
41 -24z m-20 -130 c0 -46 -16 -52 -46 -19 -19 21 -18 21 5 40 34 28 41 24 41
-21z m-410 20 c12 -8 11 -10 -7 -10 -13 0 -23 5 -23 10 0 13 11 13 30 0z m69
-22 c37 -11 131 -45 166 -58 84 -33 293 -110 299 -110 4 0 31 -11 61 -25 70
-32 81 -52 61 -112 -10 -28 -13 -60 -10 -84 6 -35 4 -39 -22 -45 -18 -5 -37
-2 -53 8 -92 53 -159 80 -182 73 -29 -9 -61 -82 -60 -137 0 -32 -4 -48 -14
-52 -17 -6 -66 13 -77 30 -4 6 -25 19 -48 29 -22 10 -40 22 -40 27 0 4 -6 8
-14 8 -21 0 -36 23 -26 40 7 11 11 11 24 1 27 -22 20 18 -6 41 -13 11 -23 25
-23 31 0 6 -11 14 -25 17 -56 15 -102 45 -158 103 -9 9 -22 17 -29 17 -7 0
-13 9 -13 21 0 15 5 19 15 15 8 -3 20 0 27 8 8 8 29 11 60 8 31 -3 48 0 48 7
0 7 23 11 59 11 33 0 63 5 66 10 3 6 -14 22 -39 38 -25 15 -46 31 -46 37 0 5
-12 19 -27 32 -32 25 -25 28 26 11z m-639 -332 c-7 -7 -10 1 -9 25 0 32 1 33
10 10 6 -16 6 -28 -1 -35z m580 4 c0 -5 -8 -10 -17 -10 -15 0 -16 2 -3 10 19
12 20 12 20 0z m74 -65 c-4 -8 -8 -15 -10 -15 -2 0 -4 7 -4 15 0 8 4 15 10 15
5 0 7 -7 4 -15z m-417 -177 c-3 -8 -6 -5 -6 6 -1 11 2 17 5 13 3 -3 4 -12 1
-19z"/>
<path d="M5920 1499 c0 -12 7 -19 20 -19 11 0 20 6 20 14 0 7 -9 16 -20 19
-15 4 -20 0 -20 -14z"/>
<path d="M2108 1433 c-25 -13 -40 -53 -20 -53 13 0 82 50 82 60 0 14 -30 11
-62 -7z"/>
<path d="M5960 1415 c0 -15 6 -25 15 -25 9 0 12 6 8 16 -3 9 0 20 8 25 11 6 8
9 -8 9 -18 0 -23 -6 -23 -25z"/>
<path d="M5905 1400 c3 -5 8 -10 11 -10 2 0 4 5 4 10 0 6 -5 10 -11 10 -5 0
-7 -4 -4 -10z"/>
<path d="M5265 1380 c-3 -5 -1 -10 4 -10 6 0 11 5 11 10 0 6 -2 10 -4 10 -3 0
-8 -4 -11 -10z"/>
<path d="M4792 1335 c0 -16 2 -22 5 -12 2 9 2 23 0 30 -3 6 -5 -1 -5 -18z"/>
<path d="M8480 1333 c0 -13 5 -23 10 -23 13 0 13 11 0 30 -8 12 -10 11 -10 -7z"/>
<path d="M5840 1321 c0 -5 7 -12 16 -15 24 -9 27 -7 10 9 -17 17 -26 19 -26 6z"/>
<path d="M1123 1303 c-13 -2 -23 -9 -23 -15 0 -5 7 -7 16 -4 9 3 22 6 30 6 8
0 14 5 14 10 0 6 -3 9 -7 9 -5 -1 -18 -4 -30 -6z"/>
<path d="M4318 1303 c7 -3 16 -2 19 1 4 3 -2 6 -13 5 -11 0 -14 -3 -6 -6z"/>
<path d="M3112 1205 c0 -16 2 -22 5 -12 2 9 2 23 0 30 -3 6 -5 -1 -5 -18z"/>
<path d="M5237 1213 c3 -7 9 -10 14 -7 14 8 11 21 -5 21 -8 0 -12 -6 -9 -14z"/>
<path d="M5560 1220 c0 -13 11 -13 30 0 12 8 11 10 -7 10 -13 0 -23 -4 -23
-10z"/>
<path d="M5250 1181 c0 -7 -4 -10 -9 -7 -5 3 -12 -1 -15 -10 -8 -22 -8 -24 6
-24 6 0 8 3 5 7 -4 3 1 12 11 19 9 7 14 16 9 20 -4 4 -7 2 -7 -5z"/>
<path d="M4286 1163 c-6 -14 -5 -15 5 -6 7 7 10 15 7 18 -3 3 -9 -2 -12 -12z"/>
<path d="M3103 1110 c0 -25 2 -35 4 -22 2 12 2 32 0 45 -2 12 -4 2 -4 -23z"/>
<path d="M4453 1110 c0 -25 2 -35 4 -22 2 12 2 32 0 45 -2 12 -4 2 -4 -23z"/>
<path d="M5560 1115 c0 -19 5 -35 10 -35 6 0 10 16 10 35 0 19 -4 35 -10 35
-5 0 -10 -16 -10 -35z"/>
<path d="M8891 1134 c0 -11 3 -14 6 -6 3 7 2 16 -1 19 -3 4 -6 -2 -5 -13z"/>
<path d="M4488 1123 c6 -2 18 -2 25 0 6 3 1 5 -13 5 -14 0 -19 -2 -12 -5z"/>
<path d="M4473 1069 c0 -24 2 -34 4 -22 3 13 13 23 26 26 21 3 21 4 2 12 -11
5 -23 13 -26 18 -4 5 -6 -10 -6 -34z"/>
<path d="M2850 1090 c-8 -5 -27 -10 -41 -10 -15 0 -33 -7 -40 -17 -8 -9 -29
-22 -46 -30 -22 -9 -33 -20 -33 -33 0 -24 13 -26 30 -5 7 8 19 15 27 15 7 0
31 9 52 19 29 15 41 17 50 8 14 -14 14 -38 -2 -57 -18 -23 -101 -62 -123 -58
-18 3 -19 -3 -15 -81 2 -47 9 -98 17 -115 7 -17 13 -23 14 -14 0 32 113 99
133 79 31 -31 -46 -101 -112 -101 -28 0 -31 -3 -31 -33 0 -19 3 -36 6 -39 6
-7 68 31 99 61 11 10 35 26 53 36 33 16 34 18 27 64 -3 26 -8 92 -10 146 -5
162 -15 191 -55 165z m0 -221 c0 -23 -51 -59 -84 -59 -49 0 -26 52 37 85 26
14 47 2 47 -26z"/>
<path d="M9506 1022 c-4 -13 -5 -26 -2 -29 10 -11 18 4 14 29 l-4 23 -8 -23z"/>
<path d="M8880 1010 c0 -11 5 -20 10 -20 6 0 10 9 10 20 0 11 -4 20 -10 20 -5
0 -10 -9 -10 -20z"/>
<path d="M8641 994 c0 -11 3 -14 6 -6 3 7 2 16 -1 19 -3 4 -6 -2 -5 -13z"/>
<path d="M8910 970 c0 -11 5 -20 10 -20 6 0 10 9 10 20 0 11 -4 20 -10 20 -5
0 -10 -9 -10 -20z"/>
<path d="M5865 960 c-3 -5 3 -10 15 -10 12 0 18 5 15 10 -3 6 -10 10 -15 10
-5 0 -12 -4 -15 -10z"/>
<path d="M3753 931 c-6 -10 -8 -23 -3 -30 5 -9 9 -3 13 16 6 34 5 37 -10 14z"/>
<path d="M9436 614 c-3 -8 -1 -25 6 -37 8 -16 13 -18 16 -8 2 7 -2 18 -9 23
-11 7 -11 11 -1 15 14 5 16 23 3 23 -5 0 -12 -7 -15 -16z"/>
<path d="M9480 500 c0 -5 5 -10 10 -10 6 0 10 5 10 10 0 6 -4 10 -10 10 -5 0
-10 -4 -10 -10z"/>
<path d="M9020 190 c14 -4 34 -8 45 -8 16 0 15 2 -5 8 -14 4 -34 8 -45 8 -16
0 -15 -2 5 -8z"/>
<path d="M9173 163 c9 -2 23 -2 30 0 6 3 -1 5 -18 5 -16 0 -22 -2 -12 -5z"/>
<path d="M5865 59 c-38 -11 -122 -28 -185 -38 l-115 -19 193 -1 192 -1 0 24
c0 13 3 31 6 40 8 20 -2 19 -91 -5z"/>
<path d="M3057 43 c-4 -3 -7 -15 -7 -25 0 -16 10 -18 95 -18 52 0 95 4 95 9 0
36 -12 41 -94 41 -46 0 -86 -3 -89 -7z"/>
<path d="M3280 16 c0 -9 5 -16 10 -16 6 0 10 4 10 9 0 6 -4 13 -10 16 -5 3
-10 -1 -10 -9z"/>
</g>
</svg>
